<svg width="20" height="20" viewBox="0 0 20 20" fill="none" xmlns="http://www.w3.org/2000/svg">
<path d="M15.8337 3.33332H14.167V2.49999C14.167 2.27898 14.0792 2.06701 13.9229 1.91073C13.7666 1.75445 13.5547 1.66666 13.3337 1.66666C13.1126 1.66666 12.9007 1.75445 12.7444 1.91073C12.5881 2.06701 12.5003 2.27898 12.5003 2.49999V3.33332H7.50033V2.49999C7.50033 2.27898 7.41253 2.06701 7.25625 1.91073C7.09997 1.75445 6.88801 1.66666 6.66699 1.66666C6.44598 1.66666 6.23402 1.75445 6.07774 1.91073C5.92146 2.06701 5.83366 2.27898 5.83366 2.49999V3.33332H4.16699C3.50395 3.33332 2.86807 3.59672 2.39923 4.06556C1.93038 4.5344 1.66699 5.17028 1.66699 5.83332V15.8333C1.66699 16.4964 1.93038 17.1322 2.39923 17.6011C2.86807 18.0699 3.50395 18.3333 4.16699 18.3333H15.8337C16.4967 18.3333 17.1326 18.0699 17.6014 17.6011C18.0703 17.1322 18.3337 16.4964 18.3337 15.8333V5.83332C18.3337 5.17028 18.0703 4.5344 17.6014 4.06556C17.1326 3.59672 16.4967 3.33332 15.8337 3.33332ZM16.667 15.8333C16.667 16.0543 16.5792 16.2663 16.4229 16.4226C16.2666 16.5789 16.0547 16.6667 15.8337 16.6667H4.16699C3.94598 16.6667 3.73402 16.5789 3.57774 16.4226C3.42146 16.2663 3.33366 16.0543 3.33366 15.8333V9.99999H16.667V15.8333ZM16.667 8.33332H3.33366V5.83332C3.33366 5.61231 3.42146 5.40035 3.57774 5.24407C3.73402 5.08779 3.94598 4.99999 4.16699 4.99999H5.83366V5.83332C5.83366 6.05434 5.92146 6.2663 6.07774 6.42258C6.23402 6.57886 6.44598 6.66666 6.66699 6.66666C6.88801 6.66666 7.09997 6.57886 7.25625 6.42258C7.41253 6.2663 7.50033 6.05434 7.50033 5.83332V4.99999H12.5003V5.83332C12.5003 6.05434 12.5881 6.2663 12.7444 6.42258C12.9007 6.57886 13.1126 6.66666 13.3337 6.66666C13.5547 6.66666 13.7666 6.57886 13.9229 6.42258C14.0792 6.2663 14.167 6.05434 14.167 5.83332V4.99999H15.8337C16.0547 4.99999 16.2666 5.08779 16.4229 5.24407C16.5792 5.40035 16.667 5.61231 16.667 5.83332V8.33332Z" fill="#23262A"/>
</svg>
