<svg xmlns="http://www.w3.org/2000/svg" width="20" height="20" viewBox="0 0 20 20"><defs><style>.a{fill:none;}.b{fill:#8e8e8e;}</style></defs><g transform="translate(-243 -1716)"><g transform="translate(243 1716)"><rect class="a" width="20" height="20"/><rect class="a" width="20" height="20"/><g transform="translate(2.447)"><path class="b" d="M15.986,1.824A1.219,1.219,0,0,0,14.828,1H5.855A1.227,1.227,0,0,0,4.7,1.824L3.09,6.449A1.694,1.694,0,0,0,3,6.987v5.841a1.222,1.222,0,0,0,1.224,1.224h0a1.222,1.222,0,0,0,1.224-1.224V12.42h9.789v.408a1.227,1.227,0,0,0,1.224,1.224h0a1.227,1.227,0,0,0,1.224-1.224V6.987a1.733,1.733,0,0,0-.09-.538ZM5.855,9.973A1.224,1.224,0,1,1,7.079,8.749,1.222,1.222,0,0,1,5.855,9.973Zm8.973,0a1.224,1.224,0,1,1,1.224-1.224A1.222,1.222,0,0,1,14.828,9.973ZM4.631,5.894,5.667,2.778a.827.827,0,0,1,.775-.555h7.8a.827.827,0,0,1,.775.555l1.036,3.116Z" transform="translate(-3 3.894)"/><path class="b" d="M7,19.631h3.263V18l4.894,2.447H11.894v1.631Z" transform="translate(-3.737 -18)"/></g></g></g></svg>