<svg aria-hidden="true" focusable="false" role="img"
xmlns="http://www.w3.org/2000/svg" width="{{width}}" height="{{height}}" viewBox="0 0 24 23">
    <g fill="none" fill-rule="evenodd">
        <path fill="currentColor" fill-rule="nonzero" d="M14.304 3.043h-2.32l.79-2.766c.02-.065.006-.136-.035-.19C12.698.032 12.634 0 12.565 0H9.522c-.098 0-.184.066-.21.16L8.008 4.943c-.018.065-.004.135.037.189.04.054.105.085.172.085h2.349l-.823 4.527c-.019.101.036.201.132.24.027.011.054.016.082.016.07 0 .14-.035.18-.097l4.348-6.521c.045-.067.05-.153.011-.224-.038-.07-.111-.115-.192-.115z" transform="translate(1)"/>
        <g transform="translate(1) translate(0 8)">
            <path fill="currentColor" fill-rule="nonzero" d="M0 12H4V14H0z"/>
            <path stroke="currentColor" stroke-linecap="round" stroke-linejoin="round" d="M6 0H4.721c-.43 0-.813.275-.949.684L2 6M20 6L18.228.684C18.092.275 17.71 0 17.279 0H16M22 12H0V8.414c0-.265.105-.52.293-.707L2 6h18l1.707 1.707c.188.187.293.442.293.707V12z"/>
            <circle cx="4" cy="9" r="1" fill="currentColor" fill-rule="nonzero"/>
            <circle cx="18" cy="9" r="1" fill="currentColor" fill-rule="nonzero"/>
            <path stroke="currentColor" stroke-linecap="round" stroke-linejoin="round" d="M4 12L4 14 0 14 0 12"/>
            <path fill="currentColor" fill-rule="nonzero" d="M18 12H22V14H18z"/>
            <path stroke="currentColor" stroke-linecap="round" stroke-linejoin="round" d="M22 12L22 14 18 14 18 12"/>
        </g>
    </g>
</svg>
