<svg width="14" height="18" viewBox="0 0 14 18" fill="none" xmlns="http://www.w3.org/2000/svg">
<path d="M6.99967 0.666656C5.23156 0.666656 3.53587 1.36904 2.28563 2.61928C1.03539 3.86952 0.333008 5.56521 0.333008 7.33332C0.333008 11.8333 6.20801 16.9167 6.45801 17.1333C6.60895 17.2624 6.80105 17.3334 6.99967 17.3334C7.1983 17.3334 7.3904 17.2624 7.54134 17.1333C7.83301 16.9167 13.6663 11.8333 13.6663 7.33332C13.6663 5.56521 12.964 3.86952 11.7137 2.61928C10.4635 1.36904 8.76778 0.666656 6.99967 0.666656ZM6.99967 15.375C5.22467 13.7083 1.99967 10.1167 1.99967 7.33332C1.99967 6.00724 2.52646 4.73547 3.46414 3.79779C4.40182 2.86011 5.67359 2.33332 6.99967 2.33332C8.32576 2.33332 9.59753 2.86011 10.5352 3.79779C11.4729 4.73547 11.9997 6.00724 11.9997 7.33332C11.9997 10.1167 8.77467 13.7167 6.99967 15.375ZM6.99967 3.99999C6.3404 3.99999 5.69594 4.19549 5.14777 4.56176C4.59961 4.92803 4.17237 5.44862 3.92008 6.05771C3.66778 6.6668 3.60177 7.33702 3.73039 7.98362C3.85901 8.63023 4.17648 9.22417 4.64265 9.69035C5.10883 10.1565 5.70277 10.474 6.34937 10.6026C6.99598 10.7312 7.6662 10.6652 8.27529 10.4129C8.88437 10.1606 9.40497 9.73339 9.77124 9.18522C10.1375 8.63706 10.333 7.99259 10.333 7.33332C10.333 6.44927 9.98182 5.60142 9.3567 4.9763C8.73158 4.35118 7.88373 3.99999 6.99967 3.99999ZM6.99967 8.99999C6.67004 8.99999 6.34781 8.90224 6.07372 8.71911C5.79964 8.53597 5.58602 8.27567 5.45987 7.97113C5.33373 7.66659 5.30072 7.33147 5.36503 7.00817C5.42934 6.68487 5.58808 6.3879 5.82116 6.15481C6.05425 5.92172 6.35122 5.76299 6.67452 5.69868C6.99783 5.63437 7.33294 5.66738 7.63748 5.79352C7.94202 5.91967 8.20232 6.13329 8.38546 6.40737C8.56859 6.68146 8.66634 7.00369 8.66634 7.33332C8.66634 7.77535 8.49075 8.19927 8.17818 8.51183C7.86562 8.8244 7.4417 8.99999 6.99967 8.99999Z" fill="#23262A"/>
</svg>