<svg width="20" height="21" viewBox="0 0 20 21" fill="none" xmlns="http://www.w3.org/2000/svg">
<mask id="mask0_131420_7500" style="mask-type:alpha" maskUnits="userSpaceOnUse" x="0" y="0" width="20" height="21">
<rect y="0.600098" width="20" height="20" fill="#D9D9D9"/>
</mask>
<g mask="url(#mask0_131420_7500)">
<path d="M10.0013 18.9338C8.86241 18.9338 7.78602 18.7149 6.77213 18.2771C5.75825 17.8399 4.87297 17.2426 4.1163 16.4854C3.35908 15.7288 2.76186 14.8435 2.32464 13.8296C1.88686 12.8157 1.66797 11.7393 1.66797 10.6004C1.66797 9.44764 1.88686 8.36792 2.32464 7.36126C2.76186 6.35403 3.35908 5.47209 4.1163 4.71542C4.87297 3.9582 5.75825 3.3607 6.77213 2.92292C7.78602 2.4857 8.86241 2.26709 10.0013 2.26709C11.1541 2.26709 12.2338 2.4857 13.2405 2.92292C14.2477 3.3607 15.1296 3.9582 15.8863 4.71542C16.6435 5.47209 17.2407 6.35403 17.678 7.36126C18.1157 8.36792 18.3346 9.44764 18.3346 10.6004C18.3346 11.7393 18.1157 12.8157 17.678 13.8296C17.2407 14.8435 16.6435 15.7288 15.8863 16.4854C15.1296 17.2426 14.2477 17.8399 13.2405 18.2771C12.2338 18.7149 11.1541 18.9338 10.0013 18.9338ZM10.0013 17.2254C10.3624 16.7254 10.6749 16.2046 10.9388 15.6629C11.2027 15.1213 11.418 14.5449 11.5846 13.9338H8.41797C8.58463 14.5449 8.79991 15.1213 9.0638 15.6629C9.32769 16.2046 9.64019 16.7254 10.0013 17.2254ZM7.83463 16.8921C7.58463 16.4338 7.36602 15.9579 7.1788 15.4646C6.99102 14.9718 6.83463 14.4615 6.70963 13.9338H4.2513C4.65408 14.6282 5.15741 15.2324 5.7613 15.7463C6.36575 16.2601 7.05686 16.6421 7.83463 16.8921ZM12.168 16.8921C12.9457 16.6421 13.6366 16.2601 14.2405 15.7463C14.8449 15.2324 15.3485 14.6282 15.7513 13.9338H13.293C13.168 14.4615 13.0119 14.9718 12.8246 15.4646C12.6369 15.9579 12.418 16.4338 12.168 16.8921ZM3.54297 12.2671H6.3763C6.33463 11.9893 6.30325 11.7149 6.28213 11.4438C6.26158 11.1732 6.2513 10.8921 6.2513 10.6004C6.2513 10.3088 6.26158 10.0276 6.28213 9.75709C6.30325 9.48598 6.33463 9.21153 6.3763 8.93376H3.54297C3.47352 9.21153 3.4213 9.48598 3.3863 9.75709C3.35186 10.0276 3.33464 10.3088 3.33464 10.6004C3.33464 10.8921 3.35186 11.1732 3.3863 11.4438C3.4213 11.7149 3.47352 11.9893 3.54297 12.2671ZM8.04297 12.2671H11.9596C12.0013 11.9893 12.0327 11.7149 12.0538 11.4438C12.0744 11.1732 12.0846 10.8921 12.0846 10.6004C12.0846 10.3088 12.0744 10.0276 12.0538 9.75709C12.0327 9.48598 12.0013 9.21153 11.9596 8.93376H8.04297C8.0013 9.21153 7.97019 9.48598 7.94963 9.75709C7.92852 10.0276 7.91797 10.3088 7.91797 10.6004C7.91797 10.8921 7.92852 11.1732 7.94963 11.4438C7.97019 11.7149 8.0013 11.9893 8.04297 12.2671ZM13.6263 12.2671H16.4596C16.5291 11.9893 16.5813 11.7149 16.6163 11.4438C16.6507 11.1732 16.668 10.8921 16.668 10.6004C16.668 10.3088 16.6507 10.0276 16.6163 9.75709C16.5813 9.48598 16.5291 9.21153 16.4596 8.93376H13.6263C13.668 9.21153 13.6991 9.48598 13.7196 9.75709C13.7407 10.0276 13.7513 10.3088 13.7513 10.6004C13.7513 10.8921 13.7407 11.1732 13.7196 11.4438C13.6991 11.7149 13.668 11.9893 13.6263 12.2671ZM13.293 7.26709H15.7513C15.3485 6.57264 14.8449 5.96848 14.2405 5.45459C13.6366 4.9407 12.9457 4.55876 12.168 4.30876C12.418 4.76709 12.6369 5.24265 12.8246 5.73542C13.0119 6.22876 13.168 6.73931 13.293 7.26709ZM8.41797 7.26709H11.5846C11.418 6.65598 11.2027 6.07959 10.9388 5.53792C10.6749 4.99626 10.3624 4.47542 10.0013 3.97542C9.64019 4.47542 9.32769 4.99626 9.0638 5.53792C8.79991 6.07959 8.58463 6.65598 8.41797 7.26709ZM4.2513 7.26709H6.70963C6.83463 6.73931 6.99102 6.22876 7.1788 5.73542C7.36602 5.24265 7.58463 4.76709 7.83463 4.30876C7.05686 4.55876 6.36575 4.9407 5.7613 5.45459C5.15741 5.96848 4.65408 6.57264 4.2513 7.26709Z" fill="#1C1B1F"/>
</g>
</svg>
