<svg width="18" height="14" viewBox="0 0 18 14" fill="none" xmlns="http://www.w3.org/2000/svg">
<path d="M9.00011 0.333344C7.53733 0.333381 6.10032 0.71846 4.83352 1.44988C3.56672 2.1813 2.51477 3.23328 1.78339 4.5001C1.05202 5.76692 0.666983 7.20394 0.666992 8.66673C0.667001 10.1295 1.05205 11.5665 1.78345 12.8333C1.89395 13.0256 2.07632 13.1661 2.29042 13.224C2.50453 13.2818 2.73283 13.2522 2.92511 13.1417C3.1174 13.0312 3.2579 12.8488 3.31573 12.6347C3.37355 12.4206 3.34395 12.1923 3.23345 12C2.64298 10.9884 2.33235 9.83796 2.33345 8.66668C2.33384 7.64433 2.56937 6.63577 3.0218 5.71898C3.47423 4.80219 4.13146 4.00174 4.94265 3.37952C5.75385 2.7573 6.69728 2.32998 7.7 2.13061C8.70272 1.93123 9.73786 1.96514 10.7254 2.22971C11.7129 2.49429 12.6263 2.98244 13.3951 3.65641C14.1638 4.33039 14.7672 5.17214 15.1587 6.11657C15.5502 7.06101 15.7192 8.08282 15.6527 9.103C15.5861 10.1232 15.2859 11.1144 14.7751 12C14.72 12.0951 14.6843 12.2002 14.67 12.3092C14.6556 12.4182 14.663 12.5289 14.6917 12.635C14.7203 12.7411 14.7697 12.8405 14.8369 12.9275C14.9042 13.0144 14.988 13.0872 15.0834 13.1417C15.2748 13.2503 15.5013 13.2789 15.7137 13.2211C15.926 13.1633 16.1068 13.024 16.2168 12.8333C16.9482 11.5665 17.3332 10.1295 17.3332 8.66673C17.3332 7.20394 16.9482 5.76692 16.2168 4.5001C15.4855 3.23328 14.4335 2.1813 13.1667 1.44988C11.8999 0.71846 10.4629 0.333381 9.00011 0.333344ZM11.3668 5.13334L10.0751 6.41668C9.74076 6.25182 9.3729 6.16627 9.00011 6.16668C8.50566 6.16668 8.02231 6.3133 7.61119 6.588C7.20007 6.86271 6.87963 7.25315 6.69041 7.70997C6.50119 8.16678 6.45169 8.66945 6.54815 9.1544C6.64461 9.63935 6.88271 10.0848 7.23235 10.4344C7.58198 10.7841 8.02744 11.0222 8.51239 11.1186C8.99734 11.2151 9.50001 11.1656 9.95682 10.9764C10.4136 10.7872 10.8041 10.4667 11.0788 10.0556C11.3535 9.64448 11.5001 9.16113 11.5001 8.66668C11.4995 8.29667 11.414 7.93174 11.2501 7.60001L12.5418 6.31668C12.6199 6.23921 12.6819 6.14704 12.7242 6.04549C12.7665 5.94394 12.7883 5.83502 12.7883 5.72501C12.7883 5.615 12.7665 5.50608 12.7242 5.40453C12.6819 5.30298 12.6199 5.21081 12.5418 5.13334C12.3856 4.97813 12.1744 4.89102 11.9543 4.89102C11.7341 4.89102 11.5229 4.97813 11.3668 5.13334ZM9.00011 9.50001C8.7791 9.50001 8.56714 9.41221 8.41086 9.25593C8.25458 9.09965 8.16678 8.88769 8.16678 8.66668C8.16678 8.44566 8.25458 8.2337 8.41086 8.07742C8.56714 7.92114 8.7791 7.83334 9.00011 7.83334C9.21755 7.83204 9.42689 7.91577 9.58345 8.06668C9.66319 8.14484 9.72641 8.23823 9.76936 8.3413C9.8123 8.44437 9.8341 8.55502 9.83345 8.66668C9.83345 8.88769 9.74565 9.09965 9.58937 9.25593C9.43309 9.41221 9.22113 9.50001 9.00011 9.50001Z" fill="#23262A"/>
</svg>
