<svg width="20" height="21" viewBox="0 0 20 21" fill="none" xmlns="http://www.w3.org/2000/svg">
<path d="M9.99525 2.84863C7.94048 2.84863 5.96992 3.665 4.51726 5.11784C3.06441 6.57068 2.24805 8.54124 2.24805 10.5958C2.24805 12.6504 3.06441 14.6212 4.51726 16.0738C5.9701 17.5267 7.94066 18.343 9.99525 18.343C12.0498 18.343 14.0206 17.5267 15.4733 16.0738C16.9261 14.621 17.7425 12.6504 17.7425 10.5958C17.7425 8.54124 16.9261 6.5705 15.4733 5.11784C14.0204 3.665 12.0498 2.84863 9.99525 2.84863ZM9.99525 4.3482C11.4355 4.34785 12.8317 4.84521 13.9475 5.75606C15.0632 6.6669 15.8301 7.93529 16.1181 9.34645H12.9066C12.6033 8.55677 11.9923 7.92432 11.2136 7.59381C10.4351 7.26329 9.55541 7.26329 8.77684 7.59381C7.99814 7.92433 7.3871 8.55677 7.08377 9.34645H3.87235C4.16033 7.93529 4.9272 6.6669 6.04288 5.75606C7.15874 4.84521 8.55491 4.34784 9.99516 4.3482H9.99525ZM9.99525 12.0955C9.5645 12.0955 9.15117 11.9243 8.84664 11.6196C8.54192 11.315 8.37091 10.9019 8.37091 10.471C8.37091 10.0402 8.54192 9.62707 8.84664 9.32236C9.15118 9.01781 9.56451 8.84663 9.99525 8.84663C10.426 8.84663 10.8393 9.01782 11.1439 9.32236C11.4486 9.62708 11.6196 10.0402 11.6196 10.471C11.6191 10.9016 11.4477 11.3143 11.1432 11.6189C10.8386 11.9235 10.4258 12.0948 9.99521 12.0955L9.99525 12.0955ZM3.74743 10.8459H6.89629C6.97369 11.4738 7.23954 12.0638 7.65897 12.5376C8.07822 13.0114 8.63153 13.347 9.24552 13.4998V16.7963C7.77161 16.6194 6.40874 15.9233 5.40128 14.8329C4.39386 13.7426 3.80759 12.3293 3.74743 10.8459ZM10.745 16.7965V13.5001C11.359 13.3472 11.9123 13.0116 12.3315 12.5378C12.751 12.064 13.0168 11.4741 13.0942 10.8462H16.2431C16.1829 12.3295 15.5967 13.7429 14.5892 14.8332C13.5818 15.9236 12.2189 16.6196 10.745 16.7966V16.7965Z" fill="black"/>
</svg>
